<svg xmlns="http://www.w3.org/2000/svg" xmlns:xlink="http://www.w3.org/1999/xlink" xmlns:sketch="http://www.bohemiancoding.com/sketch/ns" viewBox="0 0 46 28" version="1.1" x="0px" y="0px"><title>Rectangle 4</title><desc>Created with Sketch.</desc><g stroke="none" stroke-width="1" fill="none" fill-rule="evenodd" sketch:type="MSPage"><g sketch:type="MSArtboardGroup" transform="translate(0.000000, -9.000000)" fill="#000000"><g sketch:type="MSLayerGroup"><path d="M14,10 L14,14 L46,14 L46,10 L14,10 Z M14,21 L14,25 L46,25 L46,21 L14,21 Z M14,32 L14,36 L46,36 L46,32 L14,32 Z M0,9 L0,15 L6,15 L6,9 L0,9 Z M0,20 L0,26 L6,26 L6,20 L0,20 Z M0,31 L0,37 L6,37 L6,31 L0,31 Z" sketch:type="MSShapeGroup"/></g></g></g></svg>