<svg xmlns="http://www.w3.org/2000/svg" xmlns:xlink="http://www.w3.org/1999/xlink" version="1.1" x="0px" y="0px" viewBox="0 0 100 100" enable-background="new 0 0 100 100" xml:space="preserve"><polygon fill="#000000" points="78,11 78,0 71,0 71,17 64,17 64,11 29,11 29,0 22,0 22,17 16,17 16,11 4,11 4,23 96,23 96,11 "/><rect x="29" y="31" fill="#000000" width="18" height="17"/><rect x="53" y="31" fill="#000000" width="18" height="17"/><rect x="78" y="31" fill="#000000" width="18" height="17"/><rect x="4" y="56" fill="#000000" width="18" height="18"/><rect x="29" y="56" fill="#000000" width="18" height="18"/><rect x="53" y="56" fill="#000000" width="18" height="18"/><rect x="78" y="56" fill="#000000" width="18" height="18"/><rect x="4" y="81" fill="#000000" width="18" height="19"/><rect x="29" y="81" fill="#000000" width="18" height="19"/><rect x="53" y="81" fill="#000000" width="18" height="19"/></svg>